<svg width="47" height="44" viewBox="0 0 47 44" fill="none" xmlns="http://www.w3.org/2000/svg">
<g filter="url(#filter0_b)">
<path d="M41.3512 8.02439C40.4964 6.63517 39.3788 5.42597 38.0612 4.46448C36.7422 3.49974 35.2501 2.79742 33.666 2.39571C32.0231 1.9766 30.3133 1.88802 28.6359 2.13509C26.2818 2.4763 24.0784 3.45384 22.259 4.96077C21.8237 5.32126 21.4164 5.70694 21.0372 6.11781C20.5569 5.83152 20.0569 5.57734 19.5372 5.35528C17.3647 4.42695 14.9745 4.11522 12.6204 4.45643C10.9253 4.70213 9.32974 5.26492 7.87129 6.13448C6.4619 6.97256 5.23999 8.06136 4.24438 9.366C3.25223 10.661 2.52382 12.1381 2.10045 13.7135C1.66027 15.3521 1.55864 17.0391 1.80296 18.7246C2.03343 20.3147 2.5983 21.9246 3.48724 23.5168C4.23099 24.8472 5.21633 26.1962 6.41863 27.5284C8.32328 29.6364 10.8298 31.7595 13.8616 33.8407C18.886 37.2906 23.684 39.4814 23.8868 39.569L25.1237 40.1307C25.6715 40.378 26.3161 40.2846 26.7711 39.892L27.7976 39.0021C27.9665 38.8558 31.941 35.3984 35.7838 30.6632C38.1 27.8069 39.9006 25.0595 41.1284 22.4975C41.9029 20.8787 42.4695 19.3048 42.8001 17.8186C43.2004 16.0396 43.285 14.3356 43.0545 12.7455C42.815 11.0592 42.2385 9.47053 41.3512 8.02439Z" fill="#FF0000" fill-opacity="0.5"/>
</g>
<defs>
<filter id="filter0_b" x="-50" y="-49.6934" width="146.608" height="142.934" filterUnits="userSpaceOnUse" color-interpolation-filters="sRGB">
<feFlood flood-opacity="0" result="BackgroundImageFix"/>
<feGaussianBlur in="BackgroundImage" stdDeviation="25"/>
<feComposite in2="SourceAlpha" operator="in" result="effect1_backgroundBlur"/>
<feBlend mode="normal" in="SourceGraphic" in2="effect1_backgroundBlur" result="shape"/>
</filter>
</defs>
</svg>
