<svg width="59" height="54" viewBox="0 0 59 54" fill="none" xmlns="http://www.w3.org/2000/svg">
<path d="M57.2837 13.8934C56.5129 11.7497 55.3315 9.77694 53.8057 8.08543C52.2789 6.3891 50.4405 5.00191 48.3903 3.99929C46.2646 2.95606 43.9529 2.34545 41.5893 2.20292C38.2738 1.99534 34.9822 2.70069 32.0637 4.23959C31.3655 4.60772 30.6984 5.0183 30.0624 5.47134C29.4879 4.94251 28.8772 4.45192 28.2304 3.99958C25.5267 2.10867 22.3487 0.998249 19.0333 0.790663C16.6458 0.641184 14.3038 0.953645 12.0613 1.72469C9.89484 2.46674 7.91289 3.60517 6.17848 5.10343C4.45156 6.58948 3.03302 8.39995 2.00325 10.4322C0.932455 12.5459 0.310547 14.8227 0.161911 17.1967C0.0216964 19.4362 0.332895 21.7984 1.09215 24.2292C1.72787 26.2607 2.68849 28.3868 3.95048 30.552C5.95042 33.9787 8.7687 37.5984 12.3171 41.3111C18.1971 47.4653 24.1282 51.8335 24.3804 52.0113L25.9102 53.1334C26.5882 53.6282 27.4961 53.685 28.2304 53.2786L29.8883 52.3562C30.1611 52.2045 36.5836 48.6165 43.192 43.2442C47.1758 40.0032 50.4236 36.7632 52.8353 33.6128C54.3575 31.6219 55.5825 29.6326 56.46 27.6959C57.5165 25.3788 58.1199 23.0738 58.2601 20.8343C58.4155 18.4608 58.0824 16.1242 57.2837 13.8934Z" fill="white"/>
</svg>
